# xmcd CD database file generated by OrangeCD 5.1
#
# Track frame offsets:
#	182
#	12620
#	24630
#	41867
#	54275
#	67587
#	81600
#	93395
#	105952
#	118217
#	129052
#	143457
#	154242
#	165990
#
# Disc length: 2406 seconds
#
# Revision: 2
# Processed by: cddbd v1.4PL0 Copyright (c) Steve Scherf et al.
# Submitted via: OrangeCD 5.1
#
DISCID=aa09640e
DTITLE=Hank Williams Jr. - Fourteen Greatest Hits
DYEAR=1976
DGENRE=Country
TTITLE0=Eleven Roses
TTITLE1=Cajun Baby
TTITLE2=All For The Love Of Sunshine
TTITLE3=Hank
TTITLE4=Rainin' In My Heart
TTITLE5=A Rainy Night In Georgia
TTITLE6=It's All Over But The Crying
TTITLE7=The Last Love Song
TTITLE8=I'd Rather Be Gone
TTITLE9=I'll Think Of Something
TTITLE10=Pride's Not Hard To Swallow
TTITLE11=Ain't That A Shame
TTITLE12=I've Got A Right To Cry
TTITLE13=Standing In The Shadows
EXTD=
EXTT0=
EXTT1=
EXTT2=
EXTT3=
EXTT4=
EXTT5=
EXTT6=
EXTT7=
EXTT8=
EXTT9=
EXTT10=
EXTT11=
EXTT12=
EXTT13=
PLAYORDER=
